<svg width="118" height="37" viewBox="0 0 118 37" fill="none" xmlns="http://www.w3.org/2000/svg">
<path d="M73.2213 29.4469L73.22 29.4469C72.2693 29.4469 71.4997 29.0156 70.9821 28.3257C70.4736 27.6481 70.22 26.7412 70.22 25.7709C70.22 23.2748 71.9132 20.9089 74.277 20.9089C75.2096 20.9089 75.9769 21.3422 76.4974 22.0273C77.0098 22.7018 77.2763 23.6068 77.277 24.5809L73.2213 29.4469ZM73.2213 29.4469C75.5371 29.4409 77.2752 27.0843 77.277 24.5849H76.777L73.2213 29.4469ZM34.8324 26.4735L35.0284 25.4335L34.1005 25.9425C33.826 26.0931 33.5484 26.2369 33.2681 26.3739L34.9511 14.4949H44.189L42.4509 26.7346C42.3813 27.0451 42.3803 27.3671 42.4479 27.6783C42.5173 27.9972 42.6572 28.2966 42.8573 28.5545C43.0574 28.8124 43.3127 29.0222 43.6044 29.1687C43.8961 29.3151 44.2169 29.3944 44.5432 29.4008L44.5693 29.4013L44.5954 29.3991C45.2526 29.3432 45.8708 29.0633 46.3464 28.6062C46.8209 28.1501 47.1248 27.5453 47.2076 26.8924L48.967 14.4949H58.2064L56.2958 28.1958C56.2287 28.6767 56.2131 29.1692 56.3345 29.6001C56.463 30.0561 56.7477 30.4445 57.2434 30.6508C57.7074 30.8439 58.2946 30.8507 58.9917 30.7158C59.4289 30.6312 59.9309 30.4866 60.5057 30.2767C60.7836 31.5852 61.2389 32.7848 61.8641 33.8164C57.1383 35.9492 54.2437 36.4889 52.345 36.4889C49.2692 36.4889 47.5938 35.2504 46.9688 33.5943L46.6932 32.8641L46.145 33.4198C44.2352 35.3559 41.6378 36.459 38.9185 36.4889C36.8019 36.4883 35.1513 35.7136 34.1001 34.4613C33.7457 34.0392 33.4545 33.5568 33.2354 33.0222C33.3065 32.9808 33.3775 32.9392 33.4484 32.8973L33.6434 32.7821L33.6853 32.5595L34.8324 26.4735ZM31.8619 29.1697C31.6887 30.382 31.7504 31.5259 32.0259 32.5565C27.6406 34.9582 22.7509 36.3063 17.7447 36.4872C12.827 36.6517 8.77135 35.2818 5.94875 32.6569C3.12898 30.0346 1.483 26.107 1.483 21.0409C1.483 15.1006 3.52206 10.1169 7.04422 6.63589C10.5662 3.15505 15.6072 1.14114 21.6775 1.20786L21.6775 1.20802L21.6902 1.20784C25.6966 1.15013 29.6392 2.19266 33.0901 4.2179L30.1051 11.0113C28.0445 10.262 25.8646 9.88879 23.6694 9.91089C20.5015 9.91145 18.0886 10.9435 16.4487 12.6915C14.8153 14.4326 13.9977 16.8313 13.9093 19.4812L13.9093 19.4813C13.8176 22.2371 14.6241 24.5662 16.1204 26.2705C17.6153 27.9733 19.7664 29.0155 22.2977 29.2583C25.6079 29.6231 28.9431 29.1866 32.0272 28.0033L31.862 29.1691C31.862 29.1693 31.862 29.1695 31.8619 29.1697ZM63.3718 34.2204L63.5845 34.1203L63.4416 33.6977L61.9197 29.1977L61.745 28.6813L61.2879 28.8813C61.2185 28.3026 61.183 27.703 61.183 27.0869C61.183 19.5193 65.9992 13.9519 71.819 13.9519H71.8268L71.8346 13.9517C72.7997 13.9216 73.7567 14.1377 74.6153 14.5796C75.4739 15.0215 76.2058 15.6747 76.7422 16.4776L77.4735 17.5722L77.6533 16.2682L79.1178 5.64789H88.3551L85.1738 28.3686L85.173 28.3745C85.1159 28.8213 85.1153 29.2959 85.2585 29.7123C85.4103 30.1538 85.723 30.5194 86.2347 30.6886C86.7143 30.8472 87.3108 30.8135 88.0169 30.621C88.5202 30.4838 89.1053 30.2586 89.784 29.9333C90.0491 31.3559 90.519 32.6592 91.1843 33.7702C88.1449 35.4891 84.7219 36.4277 81.2226 36.4958C78.2467 36.4546 76.4913 35.1428 75.8994 33.326L75.6054 32.4234L75.0274 33.1765C74.224 34.2232 73.1876 35.0682 72.0006 35.6445C70.8136 36.2207 69.5086 36.5122 68.1892 36.4959H68.183C66.1706 36.4959 64.5499 35.6475 63.3718 34.2204ZM97.529 36.4919C95.4544 36.4919 93.7964 35.5907 92.6104 34.0836L92.7294 34.0102L92.5957 33.63L90.9197 28.866L90.7252 28.3132L90.5839 28.3897C90.5475 27.9638 90.529 27.5276 90.529 27.0829C90.529 19.6799 95.3487 13.9479 101.166 13.9479H101.173L101.181 13.9477C102.146 13.9189 103.102 14.1359 103.96 14.5785C104.817 15.021 105.548 15.6745 106.084 16.4774L106.817 17.576L106.995 16.2674L107.236 14.4999H116.473L114.52 28.3702L114.519 28.3762C114.401 29.2922 114.607 30.046 115.293 30.4235C115.725 30.6615 116.267 30.6933 116.834 30.6203L116.544 34.1465C114.861 35.5634 112.758 36.3887 110.558 36.4919C107.594 36.4884 105.838 35.1428 105.244 33.322L104.95 32.4193L104.372 33.1725C103.569 34.2192 102.533 35.0642 101.346 35.6405C100.159 36.2167 98.8544 36.5082 97.5352 36.4919H97.529ZM106.622 23.09L106.455 23.3107C106.325 22.8318 106.119 22.3952 105.839 22.0273C105.319 21.3422 104.552 20.9089 103.619 20.9089C101.255 20.9089 99.562 23.2748 99.562 25.7709C99.562 26.7412 99.8156 27.6481 100.324 28.3257C100.842 29.0156 101.611 29.4469 102.562 29.4469L102.563 29.4469C104.882 29.4409 106.622 27.0822 106.622 24.5809V23.09Z" fill="white" stroke="black"/>
</svg>
